<svg xmlns="http://www.w3.org/2000/svg" width="18.333" height="20" viewBox="0 0 18.333 20">
  <path id="ic_pan_tool_24px" d="M19.333,4.583V16.667A3.343,3.343,0,0,1,16,20H9.917a3.328,3.328,0,0,1-2.375-.992L1,12.358s1.05-1.025,1.083-1.042a.987.987,0,0,1,.658-.242,1.018,1.018,0,0,1,.5.133c.033.008,3.592,2.05,3.592,2.05V3.333a1.25,1.25,0,1,1,2.5,0V9.167h.833V1.25a1.25,1.25,0,1,1,2.5,0V9.167H13.5V2.083a1.25,1.25,0,1,1,2.5,0V9.167h.833V4.583a1.25,1.25,0,1,1,2.5,0Z" transform="translate(-1)" fill="#816b55"/>
</svg>
