<svg xmlns="http://www.w3.org/2000/svg" width="22.213" height="22.25" viewBox="0 0 22.213 22.25">
  <path id="_8665553_gift_icon" data-name="8665553_gift_icon" d="M1.391,20.859A1.389,1.389,0,0,0,2.781,22.25H9.734V12.516H1.391Zm19.469-15.3H19.028a3.757,3.757,0,0,0,0-3.537A3.721,3.721,0,0,0,15.623,0c-1.817,0-2.99.927-4.5,2.968C9.617.926,8.444,0,6.627,0a3.722,3.722,0,0,0-3.4,2.025,3.756,3.756,0,0,0,0,3.537H1.391A1.391,1.391,0,0,0,0,6.953V9.734a1.386,1.386,0,0,0,1.352,1.389H20.82a1.394,1.394,0,0,0,1.391-1.389V6.953A1.333,1.333,0,0,0,20.859,5.562Zm-14.171,0a1.738,1.738,0,0,1,0-3.477c.865,0,1.5.143,3.742,3.477Zm8.874,0H11.82c2.238-3.333,2.876-3.477,3.741-3.477a1.738,1.738,0,0,1,0,3.477ZM12.516,22.25h6.953a1.389,1.389,0,0,0,1.391-1.391V12.516h-8.3Z"/>
</svg>
