<svg xmlns="http://www.w3.org/2000/svg" xmlns:xlink="http://www.w3.org/1999/xlink" width="35.306" height="42.311" viewBox="0 0 35.306 42.311">
  <defs>
    <clipPath id="clip-path">
      <rect id="Rectangle_2654" data-name="Rectangle 2654" width="35.306" height="42.311" fill="none"/>
    </clipPath>
  </defs>
  <g id="Group_21840" data-name="Group 21840" clip-path="url(#clip-path)">
    <path id="Path_28882" data-name="Path 28882" d="M14.049,9.507c-.043.077-.082.158-.132.23a.123.123,0,0,1-.218.006.675.675,0,0,1-.136-.323,1.169,1.169,0,0,0-.182-.646,4.057,4.057,0,0,1-.558-1.749c-.033-.213-.058-.427-.071-.641a.231.231,0,0,1,.078-.176.327.327,0,0,0,.132-.283,3.372,3.372,0,0,1,.1-.434,1.321,1.321,0,0,0,.044-.272c0-.243-.047-.493.169-.687.022-.02.007-.112-.02-.152a.318.318,0,0,1,.046-.44.429.429,0,0,0,.1-.24c.014-.235.055-.332.272-.4.132-.043.15-.114.148-.233a.5.5,0,0,1,.407-.568.177.177,0,0,0,.1-.126.461.461,0,0,1,.292-.455c.142-.074.283-.138.275-.342,0-.036.109-.109.166-.108a.261.261,0,0,0,.281-.232c.041-.155.11-.259.3-.242A.225.225,0,0,0,15.82.875.355.355,0,0,1,16.244.65a.182.182,0,0,0,.237-.16c.046-.181.155-.232.332-.156.144.062.218.016.273-.114a.746.746,0,0,1,.091-.149A.138.138,0,0,1,17.4.046a1.918,1.918,0,0,1,.14.132c.04.042.076.088.128.149.074-.086.13-.158.192-.224.132-.139.232-.142.341.014a.21.21,0,0,0,.278.1.283.283,0,0,1,.338.11,1.3,1.3,0,0,0,.28.189,3,3,0,0,1,.4.311c.064.065.083.126.2.087a.358.358,0,0,1,.415.144,6.249,6.249,0,0,0,.441.461.623.623,0,0,1,.239.412c0,.044.083.1.138.123a.287.287,0,0,1,.218.259.38.38,0,0,0,.161.221.291.291,0,0,1,.138.254,1.222,1.222,0,0,0,.135.407c.068.148.174.28.228.432a.882.882,0,0,1,.04.391.359.359,0,0,0,.084.3.715.715,0,0,1,.15.233.3.3,0,0,1-.023.235.171.171,0,0,0,0,.257.47.47,0,0,1-.054.7c.012.016.022.045.038.049.24.055.263.229.245.43-.046.5-.06,1-.147,1.5a8.209,8.209,0,0,1-.341,1.1c-.072.221-.156.439-.223.662-.078.26-.148.3-.4.2a1.919,1.919,0,0,1-.209-.114c-.132.168-.263.338-.4.5-.118.145-.247.28-.359.43a.391.391,0,0,0-.084.225c.011.309.048.616.057.925a.22.22,0,0,0,.179.235c.852.282,1.706.558,2.55.863a9.094,9.094,0,0,1,.969.471c.4.2.8.393,1.183.607a5.447,5.447,0,0,1,1.246.976A2.262,2.262,0,0,1,27,16.167c.064.532.156,1.062.2,1.6.072.948.122,1.9.168,2.847.029.595.025,1.191.051,1.786.035.792.1,1.583.122,2.375a19.015,19.015,0,0,1-.049,1.975,2.524,2.524,0,0,1-.749,1.561c-.151.157-.133.217.084.272.531.134,1.068.245,1.6.389.685.187,1.369.382,2.045.6a16.551,16.551,0,0,1,2.908,1.321,4.093,4.093,0,0,1,.534.364c.28.219.56.44.823.68a1.674,1.674,0,0,1,.568,1.22,8.325,8.325,0,0,1-.041,1.379,2.456,2.456,0,0,1-1.372,1.927l-.079.037c-.33.167-.378.246-.324.613a.323.323,0,0,0,.141.179,2.587,2.587,0,0,1,.82.722A2.354,2.354,0,0,1,34.8,39.7a4.245,4.245,0,0,1-.477,1.327,2.765,2.765,0,0,1-.212.29.606.606,0,0,1,.165.545c0,.083.071.168.109.252.02.045.065.1.051.132a.172.172,0,0,1-.13.066c-.163.007-.327,0-.49,0H1.6c-.263,0-.526.005-.788,0a.567.567,0,0,1-.186-.081c.04-.079.062-.2.125-.228a.2.2,0,0,0,.134-.241A.691.691,0,0,1,.958,41.4a.209.209,0,0,0-.04-.275,2.771,2.771,0,0,1-.45-2.9,2.115,2.115,0,0,1,.671-.884c.191-.152.192-.189,0-.331A2.675,2.675,0,0,1,0,34.655a5.963,5.963,0,0,1,.226-1.373,2.694,2.694,0,0,1,1.04-1.375,15.469,15.469,0,0,1,3.455-1.965A24.064,24.064,0,0,1,8,28.829c.242-.064.485-.124.731-.171.134-.025.13-.077.082-.178-.166-.347-.337-.692-.486-1.046a4.935,4.935,0,0,1-.342-1.563c-.039-.535-.1-1.067-.152-1.6-.025-.279-.044-.559-.05-.838-.028-1.2-.055-2.392-.073-3.588-.01-.695-.018-1.391.006-2.085a9.865,9.865,0,0,1,.143-1.408,2.589,2.589,0,0,1,.694-1.294,9.1,9.1,0,0,1,1.8-1.385A10.565,10.565,0,0,1,12.4,12.609a11.953,11.953,0,0,1,1.167-.364c.376-.1.762-.158,1.141-.247a.228.228,0,0,0,.147-.151c.027-.372.038-.746.047-1.119a.37.37,0,0,0-.051-.214c-.23-.315-.47-.623-.707-.933l-.083-.073M15.323,16.5l-.155-.036a.85.85,0,0,0-1.078.443,1.121,1.121,0,0,0-.082.474c-.006,2.307,0,4.614-.011,6.92a4.661,4.661,0,0,0,.32,1.778,3.629,3.629,0,0,0,2.045,2.136,4.665,4.665,0,0,0,2.273.249,2.961,2.961,0,0,0,1.691-.742,4.31,4.31,0,0,0,1.391-2.985c.049-.654-.041-1.317-.04-1.976q0-1.514.045-3.028c.009-.319.086-.635.112-.954a.319.319,0,0,0-.1-.237,1.352,1.352,0,0,0-1.461.065c-.074.085-.163.156-.269.257a2.474,2.474,0,0,1-.028-.25V16.016a.668.668,0,0,0-.043-.308c-.271-.489-.64-.894-1.311-.592-.131.059-.172-.009-.174-.126,0-.163-.013-.328,0-.49a.6.6,0,0,0-.243-.534,1.487,1.487,0,0,0-.4-.239.882.882,0,0,0-1.094.77c0,.137,0,.274,0,.44l-.234-.091a.824.824,0,0,0-1.135.751c0,.228,0,.455,0,.683,0,.067-.007.134-.012.217M22.8,24.24a6.639,6.639,0,0,0,.291,1.836c.027.115.093.115.181.055.193-.131.393-.25.579-.389a.264.264,0,0,0,.092-.193c-.043-.954-.094-1.909-.146-2.863q-.049-.908-.107-1.815c0-.049-.049-.094-.075-.141-.044.038-.111.067-.129.115a4.456,4.456,0,0,0-.151.5c-.107.446-.2.9-.31,1.342a5.644,5.644,0,0,0-.226,1.551M11.5,21.63l-.049.011a.806.806,0,0,0-.042.175v.63c.041,1.118.107,2.237.114,3.355,0,.42.266.588.525.794.073.058.154.038.165-.067a9.681,9.681,0,0,0,.122-1.442,9.9,9.9,0,0,0-.26-1.653c-.121-.543-.3-1.074-.457-1.609a.845.845,0,0,0-.122-.193" fill="#1a1818"/>
    <path id="Path_28883" data-name="Path 28883" d="M101.115,100.434c0-.082.011-.15.011-.217v-.683a.824.824,0,0,1,1.135-.751l.234.091v-.44a.882.882,0,0,1,1.094-.77,1.488,1.488,0,0,1,.4.239.6.6,0,0,1,.243.534c-.014.162,0,.327,0,.49,0,.116.043.185.173.126.671-.3,1.04.1,1.311.592a.67.67,0,0,1,.043.308v2.593a2.475,2.475,0,0,0,.028.25c.107-.1.195-.173.269-.257a1.352,1.352,0,0,1,1.46-.065.318.318,0,0,1,.1.237c-.026.319-.1.635-.112.954q-.042,1.513-.045,3.028c0,.659.089,1.322.04,1.976a4.309,4.309,0,0,1-1.391,2.985,2.96,2.96,0,0,1-1.691.742,4.665,4.665,0,0,1-2.273-.249,3.629,3.629,0,0,1-2.045-2.136,4.656,4.656,0,0,1-.32-1.778c.01-2.307,0-4.614.011-6.92a1.119,1.119,0,0,1,.082-.474.85.85,0,0,1,1.078-.443l.156.036m-.958,4.343h-.028c0,.777-.009,1.553,0,2.33.009.612.021,1.225.074,1.834a3.4,3.4,0,0,0,.783,1.881,3.446,3.446,0,0,0,3.2,1.225,2.956,2.956,0,0,0,1.575-.612,3.863,3.863,0,0,0,1.315-2.328,6.946,6.946,0,0,0,.024-1.971,21.687,21.687,0,0,1,.038-3.584c.021-.22.041-.441.052-.662a.215.215,0,0,0-.2-.246.854.854,0,0,0-.885.356,2.163,2.163,0,0,0-.346,1.069c-.008.309-.008.619-.006.928,0,.129-.049.194-.183.2-.208.009-.247-.019-.248-.232v-5.13a.476.476,0,0,0-.5-.49.584.584,0,0,0-.576.6q.018,2.19.038,4.379c0,.058.018.132-.01.172a.36.36,0,0,1-.2.155c-.049.007-.13-.087-.164-.153a.486.486,0,0,1-.015-.207q-.008-2.882-.014-5.764a.572.572,0,0,0-.531-.54.589.589,0,0,0-.511.549c.024.542.009,1.085.009,1.628v4.169a.678.678,0,0,1-.028.275.276.276,0,0,1-.189.128c-.039.006-.116-.081-.132-.138a1.012,1.012,0,0,1-.016-.278V99.6a.385.385,0,0,0-.2-.4.578.578,0,0,0-.56-.073.468.468,0,0,0-.243.484q0,1.156,0,2.312v3.083c0,.141-.055.206-.189.217s-.172-.092-.181-.2c-.006-.07,0-.14,0-.21V101.1a.381.381,0,0,0-.037-.2.59.59,0,0,0-.685-.119.546.546,0,0,0-.247.49c0,1.168,0,2.336,0,3.5" transform="translate(-85.8 -83.94)" fill="#fff"/>
    <path id="Path_28884" data-name="Path 28884" d="M102.224,106.987v-3.5a.546.546,0,0,1,.247-.49.589.589,0,0,1,.685.119.379.379,0,0,1,.037.2v3.924c.009.111.033.214.181.2s.189-.076.189-.217v-5.4a.468.468,0,0,1,.243-.484.578.578,0,0,1,.56.073.385.385,0,0,1,.2.4q0,2.356,0,4.712a1.017,1.017,0,0,0,.016.278c.017.057.094.144.132.138a.276.276,0,0,0,.189-.128.679.679,0,0,0,.028-.275v-4.169c0-.543.015-1.086-.009-1.628a.588.588,0,0,1,.511-.549.572.572,0,0,1,.531.54q.008,2.882.014,5.764a.485.485,0,0,0,.015.207c.034.066.116.16.164.153a.359.359,0,0,0,.2-.155c.028-.039.011-.113.01-.171l-.038-4.379a.584.584,0,0,1,.576-.6.476.476,0,0,1,.5.49v5.13c0,.213.04.241.248.232.135-.006.184-.071.183-.2,0-.31,0-.619.006-.928a2.162,2.162,0,0,1,.346-1.069.854.854,0,0,1,.885-.356.215.215,0,0,1,.2.246c-.012.221-.031.442-.052.662a21.688,21.688,0,0,0-.038,3.584,6.951,6.951,0,0,1-.024,1.971,3.864,3.864,0,0,1-1.315,2.328,2.955,2.955,0,0,1-1.575.612,3.447,3.447,0,0,1-3.2-1.225,3.4,3.4,0,0,1-.783-1.881c-.053-.609-.064-1.222-.074-1.834-.012-.777,0-1.553,0-2.33h.028m3.565,6.691a2.168,2.168,0,0,0,1.115-.289,2.879,2.879,0,0,0,1.594-1.851,2.962,2.962,0,0,0-1.541-3.51,2.626,2.626,0,0,0-2.5.038,2.973,2.973,0,0,0,1.333,5.612" transform="translate(-87.868 -86.15)" fill="#1a1818"/>
    <path id="Path_28885" data-name="Path 28885" d="M109.878,159.891a2.973,2.973,0,0,1-1.333-5.612,2.626,2.626,0,0,1,2.5-.038,2.962,2.962,0,0,1,1.541,3.51,2.879,2.879,0,0,1-1.594,1.851,2.168,2.168,0,0,1-1.115.289m-1-.588c.088-.076.154-.107.173-.156.086-.221.162-.447.233-.674.012-.038-.022-.09-.034-.135-.044.019-.111.025-.127.058-.118.234-.232.471-.333.713-.015.036.045.1.088.194m-.2-3.267.033-.059c-.1-.089-.193-.177-.288-.267-.126-.121-.244-.252-.379-.362-.039-.032-.123-.009-.186-.011a1.142,1.142,0,0,0,.018.192c.007.027.048.048.077.068.186.131.37.264.559.388a.615.615,0,0,0,.166.051m2.364.006c.04-.024.075-.041.106-.064.093-.068.185-.139.278-.207a2.163,2.163,0,0,0,.306-.228c.04-.042.023-.139.032-.211-.062.007-.143-.008-.181.025-.2.175-.39.363-.58.548a.1.1,0,0,0-.022.078c0,.021.036.036.063.059m-2.078,2.071c-.062,0-.117-.016-.133,0-.186.214-.37.43-.542.655-.022.028.025.108.039.164.053-.018.131-.021.156-.058.16-.239.307-.486.479-.763m1.736.012-.011.045c.078.106.161.209.234.319s.138.245.221.356c.035.047.109.065.166.1.009-.072.052-.171.02-.212-.151-.2-.318-.385-.488-.569-.028-.03-.094-.025-.142-.036m-1.825-2.354a1.657,1.657,0,0,0-.445-.894.242.242,0,0,0-.167.059c-.012.009.018.1.046.137.052.075.119.139.176.211.125.155.249.311.389.488m2.555-.792c-.2-.174-.2-.174-.321.016s-.257.4-.38.607a.333.333,0,0,0-.018.124l.046.017.673-.764m-1.4,3.431-.07.007c.015.309.026.617.049.926,0,.028.075.071.113.069s.106-.054.1-.081a2.868,2.868,0,0,0-.2-.92m-.353-.016H109.6c-.013.053-.026.1-.038.158-.049.232-.1.464-.145.7-.009.046-.017.115.008.138a.167.167,0,0,0,.145.023.158.158,0,0,0,.077-.115q.035-.355.052-.713a.9.9,0,0,0-.031-.188m-1.266-1.3-.011-.045a.436.436,0,0,0-.127-.026c-.248.025-.5.056-.744.086-.086.01-.191,0-.163.142s.123.079.2.065q.351-.066.7-.145a.662.662,0,0,0,.15-.077m2.65.724-.043.062c.007.021.007.049.022.062.191.17.378.345.581.5.041.031.141-.015.214-.025l.014-.085-.787-.514m-1.087-2.421a1.679,1.679,0,0,0,.246-.848c0-.04-.059-.083-.092-.125-.041.038-.114.073-.119.116-.026.208-.036.418-.046.627a2.276,2.276,0,0,0,.011.231m-1.379,2.41a.358.358,0,0,0-.057.024c-.216.146-.435.289-.646.442-.035.026-.04.094-.059.142.058.012.126.048.171.029a.892.892,0,0,0,.21-.151c.13-.108.259-.216.382-.33a.231.231,0,0,0,.043-.121c0-.009-.031-.026-.044-.036m-1.093-.025c.028.118.035.23.166.168.209-.1.413-.212.614-.326.025-.014.024-.075.035-.114a.465.465,0,0,0-.123.006c-.085.027-.164.072-.25.1-.106.03-.218.038-.322.072-.049.016-.087.07-.12.1m3.892-.765-.1.059c.049.037.093.094.147.107.225.054.453.1.682.134.049.007.108-.046.162-.071-.043-.043-.081-.116-.13-.125-.234-.042-.471-.066-.761-.1m-.191-.768.028.063c.28-.083.561-.163.84-.253.033-.011.077-.084.067-.108a.155.155,0,0,0-.113-.079.381.381,0,0,0-.165.044c-.138.06-.275.123-.409.19-.085.042-.165.1-.248.143m-1.587-.812h.063a.574.574,0,0,0,.048-.184c-.021-.23-.048-.46-.091-.687-.01-.051-.091-.088-.139-.132a.5.5,0,0,0-.052.186c.03.21.075.418.118.626.013.066.035.129.053.194m-.374-.165-.024-.056c-.046-.114-.094-.226-.135-.341a1.1,1.1,0,0,0-.069-.23.2.2,0,0,0-.162-.053c-.027,0-.079.088-.067.113.088.2.186.387.289.575.014.025.069.035.106.037.02,0,.042-.029.063-.045m-.8,1.027.019-.052c-.278-.131-.554-.265-.836-.388-.024-.01-.1.047-.116.087-.011.021.032.1.066.109a3.978,3.978,0,0,0,.428.144c.144.04.292.067.439.1m2.067,2.535a1.433,1.433,0,0,0,.117.325c.033.049.133.053.2.078a.457.457,0,0,0,.011-.169,1.35,1.35,0,0,0-.138-.281c-.022-.035-.088-.074-.117-.064s-.053.075-.075.11m1.133-2.117c.172,0,.329.008.484,0,.044,0,.092-.06.121-.1.011-.017-.016-.081-.043-.1a.552.552,0,0,0-.563.207m-3.635,0c-.052-.078-.069-.133-.1-.138-.162-.032-.325-.055-.489-.072-.015,0-.055.065-.049.093s.047.111.076.112c.169.011.339.005.558.005m2.579-1.518c.1-.17.178-.3.239-.431.019-.042-.018-.109-.029-.164-.059.024-.151.033-.17.075a1.429,1.429,0,0,0-.1.35c-.007.039.028.087.058.169m1.021,2.56c.124.062.237.126.358.173.036.014.126-.014.132-.038a.221.221,0,0,0-.023-.173.342.342,0,0,0-.467.038m-.13-.191-.013-.085-.188.011c.014.038.027.109.042.109a.623.623,0,0,0,.159-.036" transform="translate(-91.956 -132.363)" fill="#fff"/>
    <path id="Path_28886" data-name="Path 28886" d="M120.128,186.27c-.043-.09-.1-.157-.088-.194.1-.242.214-.479.332-.713.016-.032.083-.039.127-.057.013.045.046.1.034.135-.071.227-.147.452-.233.674-.019.049-.086.079-.173.155" transform="translate(-103.211 -159.33)" fill="#1a1818"/>
    <path id="Path_28887" data-name="Path 28887" d="M114.241,164.552a.615.615,0,0,1-.166-.051c-.189-.125-.374-.258-.559-.388-.028-.02-.07-.041-.077-.068a1.128,1.128,0,0,1-.018-.192c.063,0,.147-.021.186.011.135.11.253.241.379.362.094.091.192.178.287.267l-.033.059" transform="translate(-97.522 -140.879)" fill="#1a1818"/>
    <path id="Path_28888" data-name="Path 28888" d="M135.746,164.563c-.026-.023-.058-.038-.063-.059a.1.1,0,0,1,.022-.078c.191-.186.38-.373.58-.548.038-.034.12-.018.181-.025-.009.072.009.169-.032.211a2.163,2.163,0,0,1-.306.228c-.094.068-.185.139-.278.207a1.1,1.1,0,0,1-.106.064" transform="translate(-116.662 -140.884)" fill="#1a1818"/>
    <path id="Path_28889" data-name="Path 28889" d="M117.14,183.655c-.172.277-.32.524-.479.763-.025.038-.1.04-.156.058-.015-.056-.061-.136-.039-.164.173-.225.356-.441.542-.655.016-.018.071,0,.133,0" transform="translate(-100.135 -157.906)" fill="#1a1818"/>
    <path id="Path_28890" data-name="Path 28890" d="M133.626,183.783c.048.011.114.006.142.036.169.184.337.37.488.569.032.042-.011.14-.02.212-.056-.031-.131-.05-.166-.1-.083-.112-.144-.24-.221-.356s-.156-.213-.234-.319l.011-.045" transform="translate(-114.885 -158.021)" fill="#1a1818"/>
    <path id="Path_28891" data-name="Path 28891" d="M116.909,161.491c-.141-.176-.264-.333-.389-.488-.058-.071-.124-.136-.176-.211-.028-.04-.058-.128-.046-.137a.242.242,0,0,1,.167-.059,1.657,1.657,0,0,1,.445.894" transform="translate(-99.993 -138.083)" fill="#1a1818"/>
    <path id="Path_28892" data-name="Path 28892" d="M134.492,160.551l-.673.764-.047-.017a.336.336,0,0,1,.018-.125c.123-.2.253-.4.38-.607s.124-.19.321-.016" transform="translate(-115.021 -137.935)" fill="#1a1818"/>
    <path id="Path_28893" data-name="Path 28893" d="M128.487,185.812a2.868,2.868,0,0,1,.2.92c0,.027-.067.079-.1.081s-.111-.041-.113-.069c-.022-.308-.034-.617-.049-.926l.07-.007" transform="translate(-110.416 -159.765)" fill="#1a1818"/>
    <path id="Path_28894" data-name="Path 28894" d="M124.811,185.7a.882.882,0,0,1,.031.188c-.012.238-.028.476-.051.713a.159.159,0,0,1-.077.115.167.167,0,0,1-.145-.023c-.025-.022-.017-.092-.008-.138.046-.233.1-.465.145-.7.011-.053.025-.1.038-.158h.068" transform="translate(-107.093 -159.67)" fill="#1a1818"/>
    <path id="Path_28895" data-name="Path 28895" d="M110.933,175.954a.658.658,0,0,1-.15.077c-.232.053-.465.1-.7.145-.073.014-.17.063-.2-.065s.077-.131.163-.142c.248-.03.5-.06.744-.086a.435.435,0,0,1,.127.026l.011.045" transform="translate(-94.48 -151.227)" fill="#1a1818"/>
    <path id="Path_28896" data-name="Path 28896" d="M136.01,181.56l.787.514-.014.085c-.073.01-.174.057-.214.025-.2-.155-.39-.33-.581-.5-.014-.013-.015-.041-.022-.062Z" transform="translate(-116.908 -156.109)" fill="#1a1818"/>
    <path id="Path_28897" data-name="Path 28897" d="M128.451,158.319a2.281,2.281,0,0,1-.011-.231c.01-.209.02-.419.046-.627.005-.043.078-.078.119-.116.032.042.094.085.092.125a1.679,1.679,0,0,1-.246.848" transform="translate(-110.435 -135.289)" fill="#1a1818"/>
    <path id="Path_28898" data-name="Path 28898" d="M114.009,181.485c.014.011.046.027.045.036a.233.233,0,0,1-.043.121c-.123.114-.253.222-.382.33a.888.888,0,0,1-.21.151c-.045.019-.113-.018-.171-.029.019-.049.024-.117.059-.143.211-.153.429-.3.646-.442a.381.381,0,0,1,.057-.024" transform="translate(-97.372 -156.045)" fill="#1a1818"/>
    <path id="Path_28899" data-name="Path 28899" d="M110.887,179.629c.033-.028.07-.082.12-.1.1-.034.216-.042.322-.072.086-.024.165-.068.25-.1a.471.471,0,0,1,.123-.006c-.011.039-.01.1-.035.114-.2.114-.4.226-.614.326-.131.063-.138-.05-.166-.168" transform="translate(-95.343 -154.214)" fill="#1a1818"/>
    <path id="Path_28900" data-name="Path 28900" d="M138.042,175.844c.291.038.527.062.761.1.049.009.087.082.13.125-.054.025-.113.078-.162.071-.229-.034-.456-.081-.682-.134-.054-.013-.1-.07-.147-.107l.1-.059" transform="translate(-118.606 -151.195)" fill="#1a1818"/>
    <path id="Path_28901" data-name="Path 28901" d="M137.294,168.051c.082-.048.163-.1.248-.143.134-.067.271-.13.409-.19a.379.379,0,0,1,.165-.044.155.155,0,0,1,.113.078c.01.024-.034.1-.067.108-.278.09-.559.17-.84.253l-.028-.063" transform="translate(-118.049 -144.169)" fill="#1a1818"/>
    <path id="Path_28902" data-name="Path 28902" d="M124.921,158.4c-.018-.065-.04-.129-.053-.194-.042-.208-.088-.416-.118-.626a.5.5,0,0,1,.052-.186c.048.043.129.081.139.132.043.227.07.457.091.687a.569.569,0,0,1-.048.184h-.063" transform="translate(-107.262 -135.333)" fill="#1a1818"/>
    <path id="Path_28903" data-name="Path 28903" d="M120.491,159.217c-.021.016-.043.047-.063.045-.037,0-.092-.012-.106-.037-.1-.188-.2-.38-.289-.575-.011-.025.041-.112.067-.113a.2.2,0,0,1,.162.053,1.1,1.1,0,0,1,.069.23c.041.115.09.228.135.341l.024.056" transform="translate(-103.206 -136.313)" fill="#1a1818"/>
    <path id="Path_28904" data-name="Path 28904" d="M111.888,168.019c-.146-.033-.294-.06-.439-.1a3.994,3.994,0,0,1-.428-.144c-.034-.013-.076-.088-.066-.109.021-.04.092-.1.116-.087.281.123.558.257.836.388l-.019.052" transform="translate(-95.401 -144.087)" fill="#1a1818"/>
    <path id="Path_28905" data-name="Path 28905" d="M132.363,188.118c.022-.035.04-.1.075-.11a.132.132,0,0,1,.117.064,1.341,1.341,0,0,1,.138.281.453.453,0,0,1-.011.169c-.07-.024-.17-.029-.2-.078a1.428,1.428,0,0,1-.117-.325" transform="translate(-113.809 -161.652)" fill="#1a1818"/>
    <path id="Path_28906" data-name="Path 28906" d="M140.443,172.285a.552.552,0,0,1,.563-.207c.027.017.054.081.043.1-.029.044-.077.1-.121.1-.155.012-.312,0-.484,0" transform="translate(-120.756 -147.936)" fill="#1a1818"/>
    <path id="Path_28907" data-name="Path 28907" d="M110.62,172.441c-.219,0-.389.005-.558-.005-.029,0-.066-.07-.076-.112s.035-.094.049-.093c.164.017.328.041.489.072.026.005.043.06.1.138" transform="translate(-94.568 -148.088)" fill="#1a1818"/>
    <path id="Path_28908" data-name="Path 28908" d="M132.546,159.259c-.03-.083-.066-.13-.058-.169a1.429,1.429,0,0,1,.1-.35c.02-.042.111-.051.17-.075.011.055.048.122.029.164-.061.135-.142.261-.239.431" transform="translate(-113.915 -136.424)" fill="#1a1818"/>
    <path id="Path_28909" data-name="Path 28909" d="M140.2,180.474a.342.342,0,0,1,.467-.038.222.222,0,0,1,.023.173c-.006.024-.1.052-.132.038-.121-.047-.234-.111-.358-.173" transform="translate(-120.545 -155.078)" fill="#1a1818"/>
    <path id="Path_28910" data-name="Path 28910" d="M138.038,179.295a.623.623,0,0,1-.159.036c-.015,0-.028-.071-.042-.109l.188-.011.013.085" transform="translate(-118.515 -154.089)" fill="#1a1818"/>
  </g>
</svg>
