<svg xmlns="http://www.w3.org/2000/svg" width="20.754" height="18.678" viewBox="0 0 20.754 18.678">
  <path id="ic_domain_24px" d="M12.377,7.151V3H2V21.678H22.754V7.151ZM6.151,19.6H4.075V17.528H6.151Zm0-4.151H4.075V13.377H6.151Zm0-4.151H4.075V9.226H6.151Zm0-4.151H4.075V5.075H6.151ZM10.3,19.6H8.226V17.528H10.3Zm0-4.151H8.226V13.377H10.3Zm0-4.151H8.226V9.226H10.3Zm0-4.151H8.226V5.075H10.3ZM20.678,19.6h-8.3V17.528h2.075V15.452H12.377V13.377h2.075V11.3H12.377V9.226h8.3ZM18.6,11.3H16.528v2.075H18.6Zm0,4.151H16.528v2.075H18.6Z" transform="translate(-2 -3)" fill="#fff" opacity="0.46"/>
</svg>
