<svg id="_112-photo-camera-1" data-name="112-photo-camera-1" xmlns="http://www.w3.org/2000/svg" width="17.778" height="14.222" viewBox="0 0 17.778 14.222">
  <g id="Group_1045" data-name="Group 1045" transform="translate(0 0)">
    <g id="Group_1044" data-name="Group 1044" transform="translate(0 0)">
      <path id="Path_1470" data-name="Path 1470" d="M16.79,53.57H13.267L12.5,51.58a.593.593,0,0,0-.553-.38H5.827a.593.593,0,0,0-.553.38l-.763,1.99H.988A.989.989,0,0,0,0,54.558v9.877a.989.989,0,0,0,.988.988h15.8a.989.989,0,0,0,.988-.988V54.558A.989.989,0,0,0,16.79,53.57Zm-.2,10.667H1.185V54.756H4.919a.593.593,0,0,0,.553-.38l.763-1.99h5.309l.763,1.99a.593.593,0,0,0,.553.38h3.733v9.482Z" transform="translate(0 -51.2)" fill="#fff"/>
    </g>
  </g>
  <g id="Group_1047" data-name="Group 1047" transform="translate(4.721 3.654)">
    <g id="Group_1046" data-name="Group 1046" transform="translate(0 0)">
      <path id="Path_1471" data-name="Path 1471" d="M140.132,156.439a4.168,4.168,0,1,0,4.168,4.168A4.173,4.173,0,0,0,140.132,156.439Zm0,7.151a2.983,2.983,0,1,1,2.983-2.983A2.986,2.986,0,0,1,140.132,163.59Z" transform="translate(-135.964 -156.439)" fill="#fff"/>
    </g>
  </g>
</svg>
