<svg xmlns="http://www.w3.org/2000/svg" width="21.771" height="21.771" viewBox="0 0 21.771 21.771">
  <path id="_8665788_music_sound_icon" data-name="8665788_music_sound_icon" d="M21.732,15.609c0,1.879-1.828,3.4-4.044,3.4s-4.044-1.523-4.044-3.363c0-1.879,1.828-3.363,4.044-3.363a4.775,4.775,0,0,1,1.361.208V6.3L8.164,9.525v8.849c-.038,1.875-1.828,3.4-4.12,3.4S0,20.248,0,18.369s1.828-3.363,4.044-3.363a4.769,4.769,0,0,1,1.361.208V5.379a1.448,1.448,0,0,1,.953-1.3L19.926.063A2.6,2.6,0,0,1,20.41,0a1.362,1.362,0,0,1,1.361,1.36Z"/>
</svg>
