<svg xmlns="http://www.w3.org/2000/svg" width="27.727" height="17.645" viewBox="0 0 27.727 17.645">
  <path id="ic_people_24px" d="M19.9,12.562a3.781,3.781,0,1,0-3.781-3.781A3.765,3.765,0,0,0,19.9,12.562Zm-10.083,0A3.781,3.781,0,1,0,6.041,8.781,3.765,3.765,0,0,0,9.822,12.562Zm0,2.521C6.886,15.083,1,16.557,1,19.494v3.151H18.645V19.494C18.645,16.557,12.759,15.083,9.822,15.083Zm10.083,0c-.365,0-.781.025-1.223.063a5.318,5.318,0,0,1,2.483,4.348v3.151h7.562V19.494C28.727,16.557,22.841,15.083,19.9,15.083Z" transform="translate(-1 -5)" fill="#a84646"/>
</svg>
