<svg xmlns="http://www.w3.org/2000/svg" width="17.124" height="19.571" viewBox="0 0 17.124 19.571">
  <path id="_8541591_book_learning_icon" data-name="8541591_book_learning_icon" d="M17.124,13.761V.917A.915.915,0,0,0,16.207,0H3.669A3.67,3.67,0,0,0,0,3.669V15.9a3.67,3.67,0,0,0,3.669,3.669H16.207a.915.915,0,0,0,.917-.917v-.612a.925.925,0,0,0-.34-.715,8.524,8.524,0,0,1,0-2.855.911.911,0,0,0,.34-.711ZM4.893,5.122a.23.23,0,0,1,.229-.229h8.1a.23.23,0,0,1,.229.229v.764a.23.23,0,0,1-.229.229h-8.1a.23.23,0,0,1-.229-.229Zm0,2.446a.23.23,0,0,1,.229-.229h8.1a.23.23,0,0,1,.229.229v.764a.23.23,0,0,1-.229.229h-8.1a.23.23,0,0,1-.229-.229Zm9.686,9.556H3.669a1.223,1.223,0,0,1,0-2.446H14.579A13.761,13.761,0,0,0,14.579,17.124Z"/>
</svg>
