<svg id="Group_21431" data-name="Group 21431" xmlns="http://www.w3.org/2000/svg" width="20.31" height="22.477" viewBox="0 0 20.31 22.477">
  <path id="ic_share_24px" d="M19.925,17.887a3.286,3.286,0,0,0-2.212.869L9.669,14.073a3.694,3.694,0,0,0,.1-.79,3.694,3.694,0,0,0-.1-.79l7.955-4.638A3.378,3.378,0,1,0,16.54,5.385a3.694,3.694,0,0,0,.1.79L8.687,10.812a3.385,3.385,0,1,0,0,4.942l8.034,4.694a3.183,3.183,0,0,0-.09.733,3.295,3.295,0,1,0,3.295-3.295Z" transform="translate(-3 -2)" fill="#59aa8b"/>
</svg>
