<svg xmlns="http://www.w3.org/2000/svg" width="31.037" height="19.751" viewBox="0 0 31.037 19.751">
  <path id="ic_group_24px" d="M22.162,13.465a4.232,4.232,0,1,0-4.232-4.232A4.215,4.215,0,0,0,22.162,13.465Zm-11.286,0A4.232,4.232,0,1,0,6.643,9.232,4.215,4.215,0,0,0,10.875,13.465Zm0,2.822C7.588,16.286,1,17.937,1,21.224v3.527H20.751V21.224C20.751,17.937,14.163,16.286,10.875,16.286Zm11.286,0c-.409,0-.875.028-1.368.071a5.953,5.953,0,0,1,2.779,4.867v3.527h8.465V21.224C32.037,17.937,25.449,16.286,22.162,16.286Z" transform="translate(-1 -5)" fill="#fff" opacity="0.46"/>
</svg>
