<svg xmlns="http://www.w3.org/2000/svg" width="12" height="12" viewBox="0 0 12 12">
  <path id="ic_g_translate_24px" d="M12.8,3.8H7.328L6.8,2H3.2A1.2,1.2,0,0,0,2,3.2V11a1.2,1.2,0,0,0,1.2,1.2H7.4L8,14h4.8A1.2,1.2,0,0,0,14,12.8V5A1.2,1.2,0,0,0,12.8,3.8ZM5.1,9.554a2.454,2.454,0,0,1,0-4.908,2.37,2.37,0,0,1,1.644.642l.042.036-.738.708L6.014,6A1.3,1.3,0,0,0,5.1,5.648a1.452,1.452,0,0,0,0,2.9,1.229,1.229,0,0,0,1.272-.876H5.048v-.93h2.37l.006.042a1.884,1.884,0,0,1,.03.366A2.275,2.275,0,0,1,5.1,9.554ZM8.72,8.528a5.989,5.989,0,0,0,.714,1.02l-.324.318L8.72,8.528Zm.462-.456H8.588L8.4,7.448H10.8A4.609,4.609,0,0,1,9.86,9.092a5.509,5.509,0,0,1-.678-1.02ZM13.4,12.8a.6.6,0,0,1-.6.6H8.6l1.2-1.2-.486-1.662.552-.552L11.474,11.6l.438-.438L10.286,9.554a5.238,5.238,0,0,0,1.152-2.106H12.2V6.824H10.016V6.2H9.392v.624H8.216L7.508,4.4H12.8a.6.6,0,0,1,.6.6Z" transform="translate(-2 -2)" fill="#fff"/>
</svg>
