<svg xmlns="http://www.w3.org/2000/svg" xmlns:xlink="http://www.w3.org/1999/xlink" width="171.393" height="44.464" viewBox="0 0 171.393 44.464">
  <defs>
    <clipPath id="clip-path">
      <rect id="Rectangle_2388" data-name="Rectangle 2388" width="171.393" height="44.464" fill="none"/>
    </clipPath>
    <clipPath id="clip-path-2">
      <rect id="Rectangle_2387" data-name="Rectangle 2387" width="171.392" height="44.464" fill="none"/>
    </clipPath>
    <clipPath id="clip-path-3">
      <rect id="Rectangle_2381" data-name="Rectangle 2381" width="43.048" height="43.048" fill="none"/>
    </clipPath>
    <clipPath id="clip-path-4">
      <rect id="Rectangle_2382" data-name="Rectangle 2382" width="26.677" height="7.902" fill="none"/>
    </clipPath>
  </defs>
  <g id="Group_21012" data-name="Group 21012" clip-path="url(#clip-path)">
    <g id="Group_21011" data-name="Group 21011">
      <g id="Group_21010" data-name="Group 21010" clip-path="url(#clip-path-2)">
        <g id="Group_21003" data-name="Group 21003" transform="translate(0 0.806)" opacity="0.32">
          <g id="Group_21002" data-name="Group 21002">
            <g id="Group_21001" data-name="Group 21001" clip-path="url(#clip-path-3)">
              <path id="Path_28777" data-name="Path 28777" d="M43.048,38.114c-1.384-1.35-1.388-2.926-1.388-4.454a7.6,7.6,0,0,0-.256-2.434,4.937,4.937,0,0,0-1.138-1.9.171.171,0,0,1,0-.239,4.925,4.925,0,0,0,1.131-1.9,7.44,7.44,0,0,0,.253-2.437c0-1.524,0-3.1,1.381-4.458a.368.368,0,0,1-.062,0c-1.9,0-3-1.1-4.071-2.171a7.446,7.446,0,0,0-1.9-1.538,4.935,4.935,0,0,0-2.147-.54.168.168,0,0,1-.168-.171,4.9,4.9,0,0,0-.547-2.143,7.382,7.382,0,0,0-1.542-1.9c-1.08-1.08-2.2-2.195-2.177-4.129-1.35,1.388-2.926,1.388-4.454,1.388a7.6,7.6,0,0,0-2.434.26,4.973,4.973,0,0,0-1.9,1.135.168.168,0,0,1-.239,0,4.926,4.926,0,0,0-1.9-1.131A7.6,7.6,0,0,0,17.051,9.1c-1.525.01-3.1,0-4.461-1.381.027,1.938-1.087,3.053-2.167,4.133a7.511,7.511,0,0,0-1.538,1.9,4.946,4.946,0,0,0-.54,2.147.171.171,0,0,1-.171.171,4.891,4.891,0,0,0-2.143.543,7.522,7.522,0,0,0-1.9,1.542c-1.07,1.073-2.174,2.177-4.075,2.177H0c1.388,1.35,1.388,2.926,1.388,4.454a7.593,7.593,0,0,0,.26,2.434,4.974,4.974,0,0,0,1.135,1.9.165.165,0,0,1,0,.239,4.914,4.914,0,0,0-1.131,1.9A7.594,7.594,0,0,0,1.4,33.7c0,1.528,0,3.1-1.381,4.457H.082c1.9,0,3,1.1,4.068,2.167a7.5,7.5,0,0,0,1.9,1.538A4.853,4.853,0,0,0,8.2,42.4a.174.174,0,0,1,.171.171,4.906,4.906,0,0,0,.543,2.147,7.646,7.646,0,0,0,1.542,1.9c1.084,1.077,2.2,2.191,2.177,4.126,1.35-1.384,2.926-1.388,4.454-1.388a7.592,7.592,0,0,0,2.434-.256,4.935,4.935,0,0,0,1.9-1.138.171.171,0,0,1,.239,0,4.914,4.914,0,0,0,1.9,1.131A7.307,7.307,0,0,0,26,49.351c1.528,0,3.1,0,4.458,1.381-.024-1.935,1.087-3.053,2.167-4.133a7.377,7.377,0,0,0,1.538-1.9,4.852,4.852,0,0,0,.54-2.147.171.171,0,0,1,.171-.167,4.959,4.959,0,0,0,2.147-.547,7.493,7.493,0,0,0,1.9-1.542c1.066-1.07,2.171-2.177,4.075-2.177Z" transform="translate(0 -7.701)" fill="#90481b"/>
              <path id="Path_28778" data-name="Path 28778" d="M65.86,89.9A16.34,16.34,0,1,1,82.2,73.561,16.359,16.359,0,0,1,65.86,89.9" transform="translate(-44.334 -52.035)" fill="#90481b"/>
            </g>
          </g>
        </g>
        <path id="Path_28779" data-name="Path 28779" d="M43.048,30.413c-1.384-1.35-1.388-2.926-1.388-4.454a7.6,7.6,0,0,0-.256-2.434,4.937,4.937,0,0,0-1.138-1.9.171.171,0,0,1,0-.239,4.925,4.925,0,0,0,1.131-1.9,7.439,7.439,0,0,0,.253-2.437c0-1.525,0-3.1,1.381-4.458a.368.368,0,0,1-.062,0c-1.9,0-3-1.1-4.071-2.171a7.448,7.448,0,0,0-1.9-1.538,4.935,4.935,0,0,0-2.147-.54.169.169,0,0,1-.168-.171,4.9,4.9,0,0,0-.547-2.143,7.379,7.379,0,0,0-1.542-1.9c-1.08-1.08-2.2-2.195-2.177-4.129-1.35,1.388-2.926,1.388-4.454,1.388a7.6,7.6,0,0,0-2.434.26,4.973,4.973,0,0,0-1.9,1.135.168.168,0,0,1-.239,0,4.926,4.926,0,0,0-1.9-1.131A7.6,7.6,0,0,0,17.051,1.4c-1.525.01-3.1,0-4.461-1.381C12.617,1.955,11.5,3.07,10.423,4.15a7.509,7.509,0,0,0-1.538,1.9A4.945,4.945,0,0,0,8.344,8.2a.171.171,0,0,1-.171.171,4.891,4.891,0,0,0-2.143.544,7.524,7.524,0,0,0-1.9,1.542C3.059,11.53,1.955,12.634.055,12.634H0c1.388,1.35,1.388,2.926,1.388,4.454a7.593,7.593,0,0,0,.26,2.434,4.973,4.973,0,0,0,1.135,1.9.165.165,0,0,1,0,.239,4.914,4.914,0,0,0-1.131,1.9A7.593,7.593,0,0,0,1.4,26c0,1.528,0,3.1-1.381,4.457H.082c1.9,0,3,1.1,4.068,2.167a7.5,7.5,0,0,0,1.9,1.538A4.853,4.853,0,0,0,8.2,34.7a.174.174,0,0,1,.171.171,4.906,4.906,0,0,0,.543,2.147,7.647,7.647,0,0,0,1.542,1.9c1.084,1.077,2.2,2.191,2.177,4.126,1.35-1.384,2.926-1.388,4.454-1.388a7.592,7.592,0,0,0,2.434-.256,4.935,4.935,0,0,0,1.9-1.138.171.171,0,0,1,.239,0,4.913,4.913,0,0,0,1.9,1.131A7.307,7.307,0,0,0,26,41.65c1.528,0,3.1,0,4.458,1.381-.024-1.935,1.087-3.053,2.167-4.133a7.377,7.377,0,0,0,1.538-1.9,4.852,4.852,0,0,0,.54-2.147.171.171,0,0,1,.171-.167,4.959,4.959,0,0,0,2.147-.547,7.493,7.493,0,0,0,1.9-1.542c1.066-1.07,2.171-2.177,4.075-2.177Z" fill="#f47019"/>
        <path id="Path_28780" data-name="Path 28780" d="M65.86,82.2A16.34,16.34,0,1,1,82.2,65.861,16.359,16.359,0,0,1,65.86,82.2" transform="translate(-44.334 -44.335)" fill="#f47019"/>
        <path id="Path_28781" data-name="Path 28781" d="M187.005,184.529a8.964,8.964,0,0,0,1.81,1.086.833.833,0,0,1-.353.186,1.531,1.531,0,0,1-.623.014,3.307,3.307,0,0,1-1.314-.678c-.276-.193-.588-.411-.956-.622a5.375,5.375,0,0,0-1.985-.579c-.263-.033-.54-.057-.828-.071l.015-.006c.241-.095.485-.186.726-.275l.035-.013a7.355,7.355,0,0,1,.886.1,16.672,16.672,0,0,1,2.588.862" transform="translate(-163.618 -164.348)" fill="#fff"/>
        <path id="Path_28782" data-name="Path 28782" d="M203.02,178.529a7.893,7.893,0,0,0,2.059.73,1.412,1.412,0,0,1-1.228.427,6.989,6.989,0,0,1-2.432-.92,19.128,19.128,0,0,0-3.4-1.2c-.045-.009-.093-.017-.145-.025l.131-.043.1-.034.267-.084q.141-.042.29-.078l.1-.021c.068-.015.136-.031.207-.044l.124-.02c.066-.011.131-.022.2-.031l.138-.016c.061-.007.122-.015.185-.021.759.239,2.393.936,2.968,1.189.138.061.283.127.432.2" transform="translate(-177.156 -158.594)" fill="#fff"/>
        <path id="Path_28783" data-name="Path 28783" d="M226.245,177.885c-.151-.07-.3-.137-.437-.2-.016-.007-1.183-.519-2.157-.9h.159c.163,0,.323.01.479.019l.035,0,.2.014.04,0,.21.018h.013c.154.014.3.03.442.046l.013,0,.19.024.017,0c.2.026.372.052.524.075l.02,0,.126.02.016,0,.121.019a6.419,6.419,0,0,1,1.283.441,10.59,10.59,0,0,0,1.888.64,1.039,1.039,0,0,1-.693.477,5.276,5.276,0,0,1-2.49-.714" transform="translate(-200.231 -158.276)" fill="#fff"/>
        <path id="Path_28784" data-name="Path 28784" d="M63.025,157.414a.686.686,0,0,1-.281.015,9.173,9.173,0,0,1-2.087-.668,6.628,6.628,0,0,0-1.363-.463,15.2,15.2,0,0,0-3.616-.223,7.085,7.085,0,0,0-1.161.2q-.1.025-.188.053c-.37.112-.817.263-1.293.435-.55.2-1.117.422-1.641.644-2.155.911-2.291,1.261-2.335,1.376a.29.29,0,0,0,.036.316c.128.143.364.1.579.048a8.581,8.581,0,0,0,1.24-.494l.018-.01a5.093,5.093,0,0,1,1.255-.546,2.229,2.229,0,0,1,.913-.073,1.3,1.3,0,0,1,.191.046c.238.077.525.221.533.465a.455.455,0,0,1-.2.372c-.111.045-.462.229-1.073.551-.674.355-1.513.8-2.057,1.056-.176.084-.364.179-.562.28a10.682,10.682,0,0,1-2.155.9,5.425,5.425,0,0,1-1.109.177l-.23.012c-1.541.084-3,.164-4.56-1.4a7.829,7.829,0,0,1-.637-.754,5.482,5.482,0,0,0-1.21-1.25,11.8,11.8,0,0,0-1.253-.681,5.785,5.785,0,0,1-1.682-1.035,3.567,3.567,0,0,1,2.332-.987c3.98-.522,5.078.365,8.307-.488.315-.083.641-.186.98-.275,2.5-.659,8.737-1.959,12.584.192.688.385,2.039,1.267,2.474,1.554a1.433,1.433,0,0,1-.747.66" transform="translate(-33.211 -137.886)" fill="#fff"/>
        <g id="Group_21006" data-name="Group 21006" transform="translate(13.872 21.568)" opacity="0.18">
          <g id="Group_21005" data-name="Group 21005">
            <g id="Group_21004" data-name="Group 21004" clip-path="url(#clip-path-4)">
              <path id="Path_28785" data-name="Path 28785" d="M185.509,231.52a8.971,8.971,0,0,0-1.81-1.086.834.834,0,0,1,.353-.186,1.53,1.53,0,0,1,.623-.014,3.307,3.307,0,0,1,1.315.678c.276.193.588.411.956.622a5.378,5.378,0,0,0,1.985.579c.263.033.54.057.828.071l-.015.006c-.241.094-.485.186-.726.275l-.035.013a7.336,7.336,0,0,1-.885-.1,16.669,16.669,0,0,1-2.588-.862" transform="translate(-178.335 -227.67)" fill="#141414"/>
              <path id="Path_28786" data-name="Path 28786" d="M159.72,235.14a7.9,7.9,0,0,0-2.059-.73,1.413,1.413,0,0,1,1.228-.427,7,7,0,0,1,2.432.92,19.1,19.1,0,0,0,3.4,1.2c.045.009.093.017.145.025l-.131.043-.1.034-.267.083q-.141.043-.29.078c-.032.008-.066.014-.1.021-.068.015-.137.03-.207.044l-.124.02c-.066.011-.131.022-.2.032l-.138.016c-.061.007-.122.015-.185.021-.759-.238-2.393-.936-2.968-1.189-.138-.061-.283-.127-.432-.2" transform="translate(-155.023 -231.045)" fill="#141414"/>
              <path id="Path_28787" data-name="Path 28787" d="M148.677,241.972c.151.07.3.137.438.2.016.007,1.183.52,2.157.9h-.159c-.163,0-.323-.01-.48-.019l-.034,0-.2-.014-.041,0-.21-.018h-.013c-.154-.014-.3-.03-.441-.046l-.013,0-.19-.023-.017,0c-.2-.025-.372-.051-.524-.075l-.02,0-.126-.02-.016,0-.121-.02a6.409,6.409,0,0,1-1.283-.44,10.609,10.609,0,0,0-1.888-.64,1.039,1.039,0,0,1,.693-.477,5.276,5.276,0,0,1,2.49.714" transform="translate(-144.13 -237.55)" fill="#141414"/>
              <path id="Path_28788" data-name="Path 28788" d="M133.22,210.464a.685.685,0,0,1,.281-.015,9.185,9.185,0,0,1,2.087.668,6.617,6.617,0,0,0,1.363.463,15.2,15.2,0,0,0,3.617.223,7.1,7.1,0,0,0,1.16-.2q.1-.025.188-.053c.37-.112.817-.263,1.293-.435.55-.2,1.117-.422,1.641-.643,2.155-.911,2.291-1.261,2.336-1.376a.29.29,0,0,0-.037-.317c-.128-.143-.364-.1-.579-.048a8.594,8.594,0,0,0-1.24.494l-.017.01a5.1,5.1,0,0,1-1.255.546,2.227,2.227,0,0,1-.913.073,1.307,1.307,0,0,1-.192-.046c-.238-.078-.525-.221-.533-.465a.456.456,0,0,1,.2-.372c.111-.045.463-.229,1.073-.551.674-.355,1.513-.8,2.057-1.056.177-.084.364-.179.561-.28a10.679,10.679,0,0,1,2.155-.9,5.425,5.425,0,0,1,1.109-.177l.23-.012c1.541-.085,3-.164,4.56,1.4a7.818,7.818,0,0,1,.637.754,5.482,5.482,0,0,0,1.21,1.25,11.829,11.829,0,0,0,1.253.681,5.784,5.784,0,0,1,1.682,1.035,3.568,3.568,0,0,1-2.332.987c-3.98.522-5.078-.365-8.307.488-.315.083-.641.186-.98.275-2.5.659-8.737,1.958-12.583-.192-.688-.385-2.039-1.268-2.474-1.554a1.432,1.432,0,0,1,.747-.66" transform="translate(-132.473 -205.962)" fill="#141414"/>
            </g>
          </g>
        </g>
        <path id="Path_28789" data-name="Path 28789" d="M452.13,143.47a5,5,0,0,1-2.173-1.76,5.09,5.09,0,0,1-.86-2.84.537.537,0,0,1,.132-.364.42.42,0,0,1,.331-.152h2.1q.485,0,.662.61a2.569,2.569,0,0,0,.916,1.807,3.106,3.106,0,0,0,1.953.587,2.523,2.523,0,0,0,2.129-.962,4.3,4.3,0,0,0,.739-2.676v-7.558h-7.479A.494.494,0,0,1,450.2,130a.56.56,0,0,1-.154-.4v-1.643a.551.551,0,0,1,.154-.411.514.514,0,0,1,.375-.152h10.082a.522.522,0,0,1,.4.164.592.592,0,0,1,.154.422v9.834a7.049,7.049,0,0,1-.75,3.356,5.1,5.1,0,0,1-2.129,2.148,6.693,6.693,0,0,1-3.21.739,7.456,7.456,0,0,1-2.989-.587" transform="translate(-402.068 -114.053)" fill="#fff"/>
        <path id="Path_28790" data-name="Path 28790" d="M574.6,143.682a.472.472,0,0,1-.143-.352l.044-.211,5.317-15.138a.723.723,0,0,1,.772-.587h2.4a.764.764,0,0,1,.772.587l5.317,15.138a.759.759,0,0,1,.022.211.494.494,0,0,1-.132.352.412.412,0,0,1-.309.141h-1.919a.617.617,0,0,1-.64-.446l-1.037-2.863h-6.552l-1.037,2.863a.64.64,0,0,1-.64.446h-1.919a.446.446,0,0,1-.32-.141m9.7-5.868-2.515-7.252-2.493,7.252Z" transform="translate(-514.298 -114.053)" fill="#fff"/>
        <path id="Path_28791" data-name="Path 28791" d="M728.827,143.658a.56.56,0,0,1-.154-.4v-15.3a.551.551,0,0,1,.154-.411.513.513,0,0,1,.375-.152h2.074a.506.506,0,0,1,.386.152.577.577,0,0,1,.143.411v15.3a.586.586,0,0,1-.143.4.487.487,0,0,1-.386.164H729.2a.494.494,0,0,1-.375-.164" transform="translate(-652.368 -114.053)" fill="#fff"/>
        <path id="Path_28792" data-name="Path 28792" d="M786.554,143.658a.56.56,0,0,1-.154-.4V127.98a.617.617,0,0,1,.143-.422.487.487,0,0,1,.386-.164h1.7a.628.628,0,0,1,.4.106,1.2,1.2,0,0,1,.243.27l6.354,10.515v-10.3a.618.618,0,0,1,.143-.422.487.487,0,0,1,.386-.164H798a.522.522,0,0,1,.4.164.593.593,0,0,1,.154.422v15.256a.592.592,0,0,1-.154.422.5.5,0,0,1-.375.164h-1.721a.768.768,0,0,1-.64-.376l-6.332-10.28v10.093a.551.551,0,0,1-.154.41.541.541,0,0,1-.4.153h-1.853a.494.494,0,0,1-.375-.164" transform="translate(-704.05 -114.053)" fill="#fff"/>
        <path id="Path_28793" data-name="Path 28793" d="M930.237,143.658a.56.56,0,0,1-.154-.4V127.98a.618.618,0,0,1,.143-.422.487.487,0,0,1,.386-.164H936q6.486,0,6.618,6.384.044,1.362.044,1.831,0,.446-.044,1.807a6.867,6.867,0,0,1-1.655,4.847,6.631,6.631,0,0,1-4.854,1.561h-5.494a.494.494,0,0,1-.375-.164M936,141.123a3.5,3.5,0,0,0,2.669-.88,4.347,4.347,0,0,0,.861-2.9q.044-1.408.044-1.76,0-.375-.044-1.737a4.146,4.146,0,0,0-.916-2.84,3.608,3.608,0,0,0-2.725-.915H933.15v11.031Z" transform="translate(-832.687 -114.053)" fill="#fff"/>
        <path id="Path_28794" data-name="Path 28794" d="M1073.079,143.658a.56.56,0,0,1-.154-.4v-15.3a.551.551,0,0,1,.154-.411.514.514,0,0,1,.375-.152h2.074a.506.506,0,0,1,.386.152.577.577,0,0,1,.143.411v15.3a.586.586,0,0,1-.143.4.487.487,0,0,1-.386.164h-2.074a.5.5,0,0,1-.375-.164" transform="translate(-960.571 -114.053)" fill="#fff"/>
        <path id="Path_28795" data-name="Path 28795" d="M1130.807,143.658a.56.56,0,0,1-.154-.4V127.98a.617.617,0,0,1,.143-.422.487.487,0,0,1,.386-.164h5.714a6.21,6.21,0,0,1,4.225,1.338,4.776,4.776,0,0,1,1.533,3.8,5.031,5.031,0,0,1-.783,2.875,4.384,4.384,0,0,1-2.173,1.678l3.221,5.985a.614.614,0,0,1,.066.258.474.474,0,0,1-.144.352.447.447,0,0,1-.32.141h-2.008a.794.794,0,0,1-.54-.164,1.531,1.531,0,0,1-.342-.469l-2.846-5.563h-3.067v5.633a.586.586,0,0,1-.143.4.486.486,0,0,1-.386.164h-2.008a.5.5,0,0,1-.375-.164m6.023-8.684a2.814,2.814,0,0,0,2-.634,2.4,2.4,0,0,0,.673-1.831,2.475,2.475,0,0,0-.673-1.854,2.75,2.75,0,0,0-2-.657h-3.111v4.976Z" transform="translate(-1012.254 -114.053)" fill="#fff"/>
        <path id="Path_28796" data-name="Path 28796" d="M1267.329,143.658a.559.559,0,0,1-.155-.4V127.98a.617.617,0,0,1,.143-.422.488.488,0,0,1,.386-.164h9.708a.522.522,0,0,1,.4.164.593.593,0,0,1,.154.422v1.549a.551.551,0,0,1-.154.411.54.54,0,0,1-.4.153h-7.258v4.154h6.773a.543.543,0,0,1,.4.153.553.553,0,0,1,.154.411v1.455a.552.552,0,0,1-.154.411.542.542,0,0,1-.4.152h-6.773v4.3h7.435a.521.521,0,0,1,.4.164.593.593,0,0,1,.154.422v1.549a.551.551,0,0,1-.154.41.54.54,0,0,1-.4.153H1267.7a.494.494,0,0,1-.375-.164" transform="translate(-1134.479 -114.053)" fill="#fff"/>
        <path id="Path_28797" data-name="Path 28797" d="M1388.22,140.383a6.712,6.712,0,0,1-1.776-4.694q-.022-.634-.022-2.066,0-1.455.022-2.112a6.674,6.674,0,0,1,1.8-4.682,6.357,6.357,0,0,1,4.688-1.678,7.669,7.669,0,0,1,3.42.716,5.48,5.48,0,0,1,2.25,1.948,5.312,5.312,0,0,1,.838,2.781v.047a.409.409,0,0,1-.144.317.466.466,0,0,1-.32.129h-2.1a.583.583,0,0,1-.4-.117.917.917,0,0,1-.221-.446,3.463,3.463,0,0,0-1.169-2.077,3.614,3.614,0,0,0-2.184-.6q-3.177,0-3.309,3.779-.022.634-.022,1.948t.022,1.995q.132,3.779,3.309,3.779a3.611,3.611,0,0,0,2.2-.61,3.382,3.382,0,0,0,1.158-2.066.763.763,0,0,1,.21-.446.63.63,0,0,1,.408-.117h2.1a.472.472,0,0,1,.342.141.41.41,0,0,1,.122.352,5.313,5.313,0,0,1-.838,2.781,5.479,5.479,0,0,1-2.25,1.948,7.667,7.667,0,0,1-3.42.716,6.367,6.367,0,0,1-4.71-1.667" transform="translate(-1241.24 -112.046)" fill="#fff"/>
        <path id="Path_28798" data-name="Path 28798" d="M1523.707,143.658a.559.559,0,0,1-.155-.4V130.28h-4.081a.5.5,0,0,1-.375-.164.561.561,0,0,1-.154-.4V127.98a.618.618,0,0,1,.143-.422.487.487,0,0,1,.386-.164h11.252a.522.522,0,0,1,.4.164.594.594,0,0,1,.154.422v1.737a.563.563,0,0,1-.154.4.521.521,0,0,1-.4.164h-4.06v12.979a.562.562,0,0,1-.154.4.521.521,0,0,1-.4.164h-2.03a.494.494,0,0,1-.375-.164" transform="translate(-1359.882 -114.053)" fill="#fff"/>
        <path id="Path_28799" data-name="Path 28799" d="M185.509,223.82a8.972,8.972,0,0,0-1.81-1.086.834.834,0,0,1,.353-.186,1.531,1.531,0,0,1,.623-.014,3.307,3.307,0,0,1,1.315.678c.276.193.588.411.956.622a5.379,5.379,0,0,0,1.985.579c.263.033.54.057.828.071l-.015.006c-.241.094-.485.186-.726.275l-.035.013a7.326,7.326,0,0,1-.885-.1,16.665,16.665,0,0,1-2.588-.862" transform="translate(-164.463 -199.209)" fill="#fff"/>
        <path id="Path_28800" data-name="Path 28800" d="M159.72,227.439a7.9,7.9,0,0,0-2.059-.73,1.412,1.412,0,0,1,1.228-.427,7,7,0,0,1,2.432.92,19.1,19.1,0,0,0,3.4,1.2q.068.013.145.025l-.131.043-.1.034-.267.083q-.141.043-.29.078c-.032.008-.066.014-.1.021-.068.015-.137.03-.207.044l-.124.02c-.066.011-.131.022-.2.032l-.138.016c-.061.007-.122.015-.185.021-.759-.238-2.393-.936-2.968-1.189-.138-.061-.283-.127-.432-.2" transform="translate(-141.151 -202.583)" fill="#fff"/>
        <path id="Path_28801" data-name="Path 28801" d="M148.677,234.272c.151.07.3.137.438.2.016.007,1.183.52,2.157.9h-.159c-.163,0-.323-.01-.48-.019l-.034,0-.2-.014-.041,0-.21-.018h-.013c-.154-.014-.3-.03-.441-.046l-.013,0-.19-.023-.017,0c-.2-.025-.372-.051-.524-.075l-.02,0-.126-.02-.016,0-.121-.02a6.41,6.41,0,0,1-1.283-.44,10.605,10.605,0,0,0-1.888-.64,1.039,1.039,0,0,1,.693-.477,5.275,5.275,0,0,1,2.49.714" transform="translate(-130.258 -209.089)" fill="#fff"/>
        <path id="Path_28802" data-name="Path 28802" d="M133.22,202.763a.685.685,0,0,1,.281-.015,9.185,9.185,0,0,1,2.087.668,6.625,6.625,0,0,0,1.363.463,15.208,15.208,0,0,0,3.617.223,7.107,7.107,0,0,0,1.16-.2q.1-.025.188-.053c.37-.112.817-.263,1.293-.435.55-.2,1.117-.422,1.641-.643,2.155-.911,2.291-1.261,2.336-1.376a.29.29,0,0,0-.037-.317c-.128-.143-.364-.1-.579-.048a8.594,8.594,0,0,0-1.24.494l-.017.01a5.1,5.1,0,0,1-1.255.546,2.228,2.228,0,0,1-.913.073,1.311,1.311,0,0,1-.192-.046c-.238-.078-.525-.221-.533-.465a.456.456,0,0,1,.2-.372c.111-.045.463-.229,1.073-.551.674-.355,1.513-.8,2.057-1.056.177-.084.364-.179.561-.28a10.68,10.68,0,0,1,2.155-.9,5.423,5.423,0,0,1,1.109-.177l.23-.012c1.541-.085,3-.164,4.56,1.4a7.814,7.814,0,0,1,.637.754,5.483,5.483,0,0,0,1.21,1.25,11.829,11.829,0,0,0,1.253.681,5.784,5.784,0,0,1,1.682,1.035,3.568,3.568,0,0,1-2.332.987c-3.98.522-5.078-.365-8.307.488-.315.083-.641.186-.98.275-2.5.659-8.737,1.958-12.583-.192-.688-.385-2.039-1.268-2.474-1.554a1.432,1.432,0,0,1,.747-.66" transform="translate(-118.601 -177.499)" fill="#fff"/>
        <g id="Group_21009" data-name="Group 21009" transform="translate(3.884 16.531)" opacity="0.18">
          <g id="Group_21008" data-name="Group 21008">
            <g id="Group_21007" data-name="Group 21007" clip-path="url(#clip-path-4)">
              <path id="Path_28803" data-name="Path 28803" d="M187.005,188.38a8.965,8.965,0,0,0,1.81,1.086.833.833,0,0,1-.353.186,1.531,1.531,0,0,1-.623.014,3.307,3.307,0,0,1-1.314-.678c-.276-.193-.588-.411-.956-.622a5.375,5.375,0,0,0-1.985-.579c-.263-.033-.54-.057-.828-.071l.015-.006c.241-.095.485-.186.726-.275l.035-.013a7.356,7.356,0,0,1,.886.1,16.672,16.672,0,0,1,2.588.862" transform="translate(-167.503 -184.327)" fill="#141414"/>
              <path id="Path_28804" data-name="Path 28804" d="M203.02,182.379a7.892,7.892,0,0,0,2.059.73,1.412,1.412,0,0,1-1.228.427,6.989,6.989,0,0,1-2.432-.92,19.125,19.125,0,0,0-3.4-1.2c-.045-.009-.093-.017-.145-.025l.131-.043.1-.034.267-.084q.141-.042.29-.078l.1-.021c.068-.015.136-.031.207-.044l.124-.02c.066-.011.131-.022.2-.031l.138-.016c.061-.007.122-.015.185-.021.759.239,2.393.936,2.968,1.189.138.061.283.127.432.2" transform="translate(-181.04 -178.572)" fill="#141414"/>
              <path id="Path_28805" data-name="Path 28805" d="M226.245,181.736c-.151-.07-.3-.137-.437-.2-.016-.007-1.183-.52-2.157-.9h.159c.163,0,.323.01.479.019l.035,0,.2.014.04,0,.21.018h.013c.154.014.3.03.442.046l.013,0,.19.024.017,0c.2.026.372.051.524.075l.02,0,.126.02.016,0,.121.019a6.418,6.418,0,0,1,1.283.441,10.6,10.6,0,0,0,1.888.64,1.039,1.039,0,0,1-.693.477,5.276,5.276,0,0,1-2.49-.714" transform="translate(-204.115 -178.255)" fill="#141414"/>
              <path id="Path_28806" data-name="Path 28806" d="M63.025,161.264a.686.686,0,0,1-.281.015,9.174,9.174,0,0,1-2.087-.668,6.628,6.628,0,0,0-1.363-.463,15.2,15.2,0,0,0-3.616-.223,7.088,7.088,0,0,0-1.161.2q-.1.025-.188.053c-.37.112-.817.263-1.293.435-.55.2-1.117.422-1.641.644-2.155.911-2.291,1.261-2.335,1.376a.29.29,0,0,0,.036.316c.128.143.364.1.579.048a8.58,8.58,0,0,0,1.24-.494l.018-.01a5.1,5.1,0,0,1,1.255-.546,2.228,2.228,0,0,1,.913-.073,1.3,1.3,0,0,1,.191.046c.238.077.525.221.533.465a.455.455,0,0,1-.2.372c-.111.045-.462.229-1.073.551-.674.355-1.513.8-2.057,1.056-.176.084-.364.179-.562.28a10.682,10.682,0,0,1-2.155.9,5.418,5.418,0,0,1-1.109.177l-.23.012c-1.541.084-3,.164-4.56-1.4a7.829,7.829,0,0,1-.637-.754,5.482,5.482,0,0,0-1.21-1.25,11.821,11.821,0,0,0-1.253-.681,5.786,5.786,0,0,1-1.682-1.035,3.567,3.567,0,0,1,2.332-.987c3.98-.522,5.078.365,8.307-.488.315-.083.641-.186.98-.275,2.5-.659,8.737-1.959,12.584.192.688.385,2.039,1.267,2.474,1.554a1.433,1.433,0,0,1-.747.66" transform="translate(-37.095 -157.864)" fill="#141414"/>
            </g>
          </g>
        </g>
        <path id="Path_28807" data-name="Path 28807" d="M937.068,355.677h-2.2v2.467h-.951v-5.822h3.477v.816h-2.526v1.732h2.2Z" transform="translate(-836.117 -315.428)" fill="#fff"/>
        <path id="Path_28808" data-name="Path 28808" d="M972.793,366.807a2.126,2.126,0,0,0-.372-.032.832.832,0,0,0-.846.512v2.959h-.913v-4.326h.872l.023.484a1.019,1.019,0,0,1,.917-.564.809.809,0,0,1,.323.056Z" transform="translate(-869.017 -327.529)" fill="#fff"/>
        <path id="Path_28809" data-name="Path 28809" d="M994.461,370.325a1.83,1.83,0,0,1-1.407-.582,2.187,2.187,0,0,1-.539-1.549v-.12a2.736,2.736,0,0,1,.235-1.158,1.871,1.871,0,0,1,.66-.794,1.669,1.669,0,0,1,.947-.284,1.553,1.553,0,0,1,1.284.564,2.488,2.488,0,0,1,.453,1.6v.392h-2.658a1.341,1.341,0,0,0,.336.848.979.979,0,0,0,.742.312,1.213,1.213,0,0,0,1.022-.54l.493.5a1.68,1.68,0,0,1-.652.6,1.939,1.939,0,0,1-.915.214m-.109-3.707a.749.749,0,0,0-.607.28,1.5,1.5,0,0,0-.3.78h1.74v-.072a1.227,1.227,0,0,0-.244-.738.74.74,0,0,0-.594-.25" transform="translate(-888.581 -327.529)" fill="#fff"/>
        <path id="Path_28810" data-name="Path 28810" d="M1032.069,370.325a1.83,1.83,0,0,1-1.408-.582,2.187,2.187,0,0,1-.539-1.549v-.12a2.738,2.738,0,0,1,.235-1.158,1.871,1.871,0,0,1,.66-.794,1.668,1.668,0,0,1,.947-.284,1.552,1.552,0,0,1,1.284.564,2.488,2.488,0,0,1,.453,1.6v.392h-2.657a1.34,1.34,0,0,0,.336.848.979.979,0,0,0,.742.312,1.213,1.213,0,0,0,1.022-.54l.493.5a1.678,1.678,0,0,1-.652.6,1.939,1.939,0,0,1-.915.214m-.109-3.707a.748.748,0,0,0-.607.28,1.5,1.5,0,0,0-.3.78h1.74v-.072a1.229,1.229,0,0,0-.244-.738.74.74,0,0,0-.594-.25" transform="translate(-922.251 -327.529)" fill="#fff"/>
        <path id="Path_28811" data-name="Path 28811" d="M1087.177,353.138h-1.706v5.006h-.943v-5.006h-1.692v-.816h4.341Z" transform="translate(-969.444 -315.428)" fill="#fff"/>
        <path id="Path_28812" data-name="Path 28812" d="M1125.729,370.325a1.83,1.83,0,0,1-1.407-.582,2.188,2.188,0,0,1-.539-1.549v-.12a2.738,2.738,0,0,1,.235-1.158,1.87,1.87,0,0,1,.66-.794,1.668,1.668,0,0,1,.947-.284,1.552,1.552,0,0,1,1.284.564,2.488,2.488,0,0,1,.453,1.6v.392H1124.7a1.34,1.34,0,0,0,.337.848.978.978,0,0,0,.742.312,1.213,1.213,0,0,0,1.022-.54l.493.5a1.679,1.679,0,0,1-.652.6,1.939,1.939,0,0,1-.915.214m-.109-3.707a.749.749,0,0,0-.607.28,1.5,1.5,0,0,0-.3.78h1.74v-.072a1.227,1.227,0,0,0-.244-.738.741.741,0,0,0-.594-.25" transform="translate(-1006.103 -327.529)" fill="#fff"/>
        <path id="Path_28813" data-name="Path 28813" d="M1163.09,369.55a.8.8,0,0,0,.568-.212.741.741,0,0,0,.241-.524h.861a1.491,1.491,0,0,1-.237.754,1.588,1.588,0,0,1-.6.554,1.7,1.7,0,0,1-.819.2,1.684,1.684,0,0,1-1.353-.588,2.428,2.428,0,0,1-.5-1.623v-.1a2.387,2.387,0,0,1,.5-1.581,1.67,1.67,0,0,1,1.353-.594,1.613,1.613,0,0,1,1.182.45,1.661,1.661,0,0,1,.479,1.182h-.861a.919.919,0,0,0-.239-.612.744.744,0,0,0-.569-.24.786.786,0,0,0-.684.342,1.83,1.83,0,0,0-.244,1.038v.156a1.862,1.862,0,0,0,.239,1.05.786.786,0,0,0,.69.346" transform="translate(-1039.646 -327.529)" fill="#fff"/>
        <path id="Path_28814" data-name="Path 28814" d="M1200.307,351.555a1.4,1.4,0,0,1,1.131-.552q1.3,0,1.319,1.579v2.827h-.913v-2.791a.891.891,0,0,0-.182-.634.718.718,0,0,0-.536-.186.874.874,0,0,0-.82.52v3.091h-.913v-6.142h.913Z" transform="translate(-1073.797 -312.694)" fill="#fff"/>
        <path id="Path_28815" data-name="Path 28815" d="M1239.228,365.919l.026.5a1.429,1.429,0,0,1,1.184-.58q1.271,0,1.293,1.548v2.859h-.913v-2.8a.931.931,0,0,0-.167-.61.679.679,0,0,0-.547-.2.875.875,0,0,0-.823.532v3.079h-.913v-4.326Z" transform="translate(-1108.689 -327.529)" fill="#fff"/>
        <path id="Path_28816" data-name="Path 28816" d="M1275.905,368.043a2.687,2.687,0,0,1,.237-1.146,1.746,1.746,0,0,1,1.65-1.058,1.722,1.722,0,0,1,1.336.564,2.3,2.3,0,0,1,.554,1.5l0,.228a2.717,2.717,0,0,1-.231,1.144,1.748,1.748,0,0,1-1.656,1.056,1.715,1.715,0,0,1-1.378-.61,2.429,2.429,0,0,1-.517-1.625Zm.913.084a1.826,1.826,0,0,0,.26,1.046.827.827,0,0,0,.722.378.819.819,0,0,0,.72-.384,2.02,2.02,0,0,0,.257-1.124,1.8,1.8,0,0,0-.265-1.04.862.862,0,0,0-1.43-.006,1.982,1.982,0,0,0-.263,1.129" transform="translate(-1142.296 -327.53)" fill="#fff"/>
        <rect id="Rectangle_2384" data-name="Rectangle 2384" width="0.913" height="6.142" transform="translate(138.028 36.574)" fill="#fff"/>
        <path id="Path_28817" data-name="Path 28817" d="M1332.853,368.043a2.686,2.686,0,0,1,.237-1.146,1.746,1.746,0,0,1,1.65-1.058,1.721,1.721,0,0,1,1.336.564,2.3,2.3,0,0,1,.554,1.5l0,.228a2.712,2.712,0,0,1-.231,1.144,1.784,1.784,0,0,1-.662.78,1.8,1.8,0,0,1-.994.276,1.715,1.715,0,0,1-1.378-.61,2.429,2.429,0,0,1-.517-1.625Zm.913.084a1.826,1.826,0,0,0,.26,1.046.828.828,0,0,0,.722.378.819.819,0,0,0,.72-.384,2.021,2.021,0,0,0,.257-1.124,1.8,1.8,0,0,0-.265-1.04.861.861,0,0,0-1.43-.006,1.978,1.978,0,0,0-.264,1.129" transform="translate(-1193.281 -327.53)" fill="#fff"/>
        <path id="Path_28818" data-name="Path 28818" d="M1372.974,368.05a2.645,2.645,0,0,1,.445-1.61,1.4,1.4,0,0,1,1.182-.6,1.307,1.307,0,0,1,1.094.516l.041-.436h.823v4.195a1.8,1.8,0,0,1-.5,1.344,1.829,1.829,0,0,1-1.344.492,2.055,2.055,0,0,1-.874-.2,1.568,1.568,0,0,1-.648-.518l.432-.584a1.276,1.276,0,0,0,1.037.532.973.973,0,0,0,.718-.262,1.041,1.041,0,0,0,.263-.77v-.292a1.306,1.306,0,0,1-1.052.468,1.4,1.4,0,0,1-1.167-.6,2.733,2.733,0,0,1-.453-1.671m.91.084a1.826,1.826,0,0,0,.25,1.026.79.79,0,0,0,.693.374.871.871,0,0,0,.819-.5v-1.9a.858.858,0,0,0-.812-.492.793.793,0,0,0-.7.38,2.048,2.048,0,0,0-.25,1.12" transform="translate(-1229.2 -327.529)" fill="#fff"/>
        <path id="Path_28819" data-name="Path 28819" d="M1412.141,369.538l.827-2.935h.973l-1.616,4.982q-.372,1.092-1.263,1.092a1.542,1.542,0,0,1-.44-.072v-.755l.173.012a.85.85,0,0,0,.521-.134.893.893,0,0,0,.276-.45l.132-.372-1.428-4.3h.985Z" transform="translate(-1262.613 -328.213)" fill="#fff"/>
        <path id="Path_28820" data-name="Path 28820" d="M1462.517,354.692v-3.607h-.62v-.72h.62v-.4a1.541,1.541,0,0,1,.376-1.112,1.389,1.389,0,0,1,1.052-.392,2,2,0,0,1,.511.072l-.023.76a1.69,1.69,0,0,0-.349-.032q-.654,0-.654.716v.384h.827v.72h-.827v3.607Z" transform="translate(-1308.811 -311.976)" fill="#fff"/>
        <path id="Path_28821" data-name="Path 28821" d="M1487.337,368.043a2.691,2.691,0,0,1,.237-1.146,1.808,1.808,0,0,1,.666-.784,1.788,1.788,0,0,1,.985-.274,1.722,1.722,0,0,1,1.336.564,2.293,2.293,0,0,1,.554,1.5l0,.228a2.716,2.716,0,0,1-.231,1.144,1.784,1.784,0,0,1-.661.78,1.8,1.8,0,0,1-.994.276,1.714,1.714,0,0,1-1.377-.61,2.429,2.429,0,0,1-.517-1.625Zm.913.084a1.829,1.829,0,0,0,.259,1.046.828.828,0,0,0,.722.378.819.819,0,0,0,.72-.384,2.019,2.019,0,0,0,.258-1.124,1.8,1.8,0,0,0-.265-1.04.862.862,0,0,0-1.43-.006,1.981,1.981,0,0,0-.263,1.129" transform="translate(-1331.587 -327.53)" fill="#fff"/>
        <path id="Path_28822" data-name="Path 28822" d="M1531.1,366.807a2.123,2.123,0,0,0-.372-.032.832.832,0,0,0-.846.512v2.959h-.913v-4.326h.872l.023.484a1.019,1.019,0,0,1,.917-.564.81.81,0,0,1,.323.056Z" transform="translate(-1368.855 -327.529)" fill="#fff"/>
        <path id="Path_28823" data-name="Path 28823" d="M1570.778,370.245a1.573,1.573,0,0,1-.105-.4,1.47,1.47,0,0,1-2.068.112,1.225,1.225,0,0,1-.387-.92,1.257,1.257,0,0,1,.483-1.062,2.235,2.235,0,0,1,1.381-.37h.56v-.284a.788.788,0,0,0-.177-.538.677.677,0,0,0-.538-.2.772.772,0,0,0-.511.166.525.525,0,0,0-.2.422h-.913a1.121,1.121,0,0,1,.222-.666,1.492,1.492,0,0,1,.6-.486,2.008,2.008,0,0,1,.851-.176,1.641,1.641,0,0,1,1.139.382,1.4,1.4,0,0,1,.436,1.074v1.951a2.338,2.338,0,0,0,.154.932v.068Zm-1-.7a.99.99,0,0,0,.509-.14.909.909,0,0,0,.359-.376v-.816h-.493a1.282,1.282,0,0,0-.763.188.621.621,0,0,0-.256.532.585.585,0,0,0,.175.446.651.651,0,0,0,.468.166" transform="translate(-1403.999 -327.529)" fill="#fff"/>
        <rect id="Rectangle_2385" data-name="Rectangle 2385" width="0.913" height="6.142" transform="translate(168.379 36.574)" fill="#fff"/>
        <rect id="Rectangle_2386" data-name="Rectangle 2386" width="0.913" height="6.142" transform="translate(170.153 36.574)" fill="#fff"/>
      </g>
    </g>
  </g>
</svg>
