<svg xmlns="http://www.w3.org/2000/svg" width="18.208" height="20.231" viewBox="0 0 18.208 20.231">
  <path id="ic_receipt_24px" d="M18.173,17.173H6.035V15.15H18.173Zm0-4.046H6.035V11.1H18.173Zm0-4.046H6.035V7.058H18.173ZM3,22.231l1.517-1.517,1.517,1.517,1.517-1.517,1.517,1.517,1.517-1.517L12.1,22.231l1.517-1.517,1.517,1.517,1.517-1.517,1.517,1.517,1.517-1.517,1.517,1.517V2L19.69,3.517,18.173,2,16.656,3.517,15.138,2,13.621,3.517,12.1,2,10.587,3.517,9.069,2,7.552,3.517,6.035,2,4.517,3.517,3,2Z" transform="translate(-3 -2)" fill="#4ab6d6"/>
</svg>
