<svg xmlns="http://www.w3.org/2000/svg" width="11" height="11" viewBox="0 0 11 11">
  <path id="ic_settings_24px" d="M11.973,8.039a3.69,3.69,0,0,0,0-1.078l1.193-.908a.272.272,0,0,0,.068-.352L12.1,3.8a.288.288,0,0,0-.345-.121l-1.408.55a4.16,4.16,0,0,0-.956-.539L9.18,2.231A.273.273,0,0,0,8.9,2H6.641a.273.273,0,0,0-.277.231L6.149,3.689a4.375,4.375,0,0,0-.956.539l-1.408-.55a.279.279,0,0,0-.345.121L2.31,5.7a.266.266,0,0,0,.068.352l1.193.907a4.245,4.245,0,0,0-.04.539,4.245,4.245,0,0,0,.04.539l-1.193.908A.272.272,0,0,0,2.31,9.3l1.131,1.9a.288.288,0,0,0,.345.121l1.408-.55a4.16,4.16,0,0,0,.956.539l.215,1.457A.273.273,0,0,0,6.641,13H8.9a.273.273,0,0,0,.277-.231l.215-1.457a4.375,4.375,0,0,0,.956-.539l1.408.55A.279.279,0,0,0,12.1,11.2l1.131-1.9a.272.272,0,0,0-.068-.352Zm-4.2,1.386A1.926,1.926,0,1,1,9.751,7.5,1.955,1.955,0,0,1,7.772,9.425Z" transform="translate(-2.271 -2)" fill="#fff"/>
</svg>
